<svg width="15" height="17" viewBox="0 0 15 17" fill="none" xmlns="http://www.w3.org/2000/svg">
<path d="M13.5545 6.70001C13.5545 11.3667 7.12735 15.3667 7.12735 15.3667C7.12735 15.3667 0.700195 11.3667 0.700195 6.70001C0.700195 5.10871 1.37734 3.58259 2.58267 2.45737C3.78799 1.33215 5.42276 0.700012 7.12735 0.700012C8.83194 0.700012 10.4667 1.33215 11.672 2.45737C12.8774 3.58259 13.5545 5.10871 13.5545 6.70001Z" stroke="#8F90A6" stroke-width="1.4" stroke-linecap="round" stroke-linejoin="round"/>
<path d="M7.12725 8.70001C8.31046 8.70001 9.26963 7.80458 9.26963 6.70001C9.26963 5.59544 8.31046 4.70001 7.12725 4.70001C5.94404 4.70001 4.98486 5.59544 4.98486 6.70001C4.98486 7.80458 5.94404 8.70001 7.12725 8.70001Z" stroke="#8F90A6" stroke-width="1.4" stroke-linecap="round" stroke-linejoin="round"/>
</svg>
